<?xml version="1.0" encoding="UTF-8"?>
<svg xmlns="http://www.w3.org/2000/svg" version="1.1" viewBox="0 0 2544 105.77">
  <!-- Generator: Adobe Illustrator 28.7.1, SVG Export Plug-In . SVG Version: 1.2.0 Build 142)  -->
  <g>
    <g id="Layer_1">
      <path d="M1450.44,3.41c50.63,1.33,513.31,9.04,563.9,7.72,248.47-6.44,326.26,13.01,584.49-11.59-27.04,2.57-52.83,84.09-52.83,111.09-850,0-1700,0-2550,0,0-36.67-10.65-58.98-10.65-95.64,99.8-7.92,127.4-2.03,242.04,1.29,24.87.72,116.19,4.47,140.57,3.02,111.89-7.27,168.44,2.14,280.42-5.59,65.89-4.55,182.16,1.17,245.9,1.29,53.54-2.38,78.53,0,132.61-3.86l423.57-7.72Z"/>
    </g>
  </g>
</svg>