<?xml version="1.0" encoding="UTF-8"?>
<svg xmlns="http://www.w3.org/2000/svg" version="1.1" viewBox="0 0 800 400">
  <defs>
    <style>
      .cls-1 {
        fill: #3cf;
      }

      .cls-2 {
        fill: #090a0b;
      }

      .cls-3 {
        fill: #fff;
      }

      .cls-4 {
        fill: #46c7f4;
      }

      .cls-5 {
        fill: #a4a4a4;
      }
    </style>
  </defs>
  <!-- Generator: Adobe Illustrator 28.7.1, SVG Export Plug-In . SVG Version: 1.2.0 Build 142)  -->
  <g>
    <g id="Layer_1">
      <rect class="cls-5" x="-70.62" y="459.32" width="939.17" height="467"/>
      <path class="cls-3" d="M404.45,49.16c-15.5,7.11-25.84,21.32-26.48,25.84-.65,4.52-13.56,37.46-13.56,39.4s-9.69,38.11-9.69,38.11l-9.04,38.76s-1.94,16.79-5.17,21.32c-3.23,4.52-16.79,17.44-18.73,20.02-1.94,2.58-28.42,20.02-36.17,23.25-7.75,3.23-52.32,26.48-76.86,36.82-24.55,10.33-53.61,18.09-58.78,22.61-5.17,4.52-12.92,13.56-12.92,18.73s5.81,10.98,9.69,11.63c3.88.65,20.02,9.04,31,5.17,10.98-3.88,43.28-22.61,51.03-25.84,7.75-3.23,27.77-15.5,34.23-18.09,6.46-2.58,43.28-22.61,45.86-23.25,2.58-.65,20.67-8.4,27.13-7.11,6.46,1.29,8.4,10.98,14.86,13.56,6.46,2.58,10.98,11.63,23.9,9.69,12.92-1.94,23.25-12.92,28.42-18.09s16.79-36.82,19.38-39.4c2.58-2.58,6.46-12.92,6.46-12.92,0,0,5.17,2.58,11.63,1.94,6.46-.65,22.61-2.58,28.42-4.52s29.07-17.44,31.65-18.09,16.15-13.56,16.79-10.98c.65,2.58,1.29,23.25,4.52,26.48,3.23,3.23,14.86,14.21,22.61,14.21s23.9-5.17,27.77-7.75,15.5-14.86,15.5-14.86c0,0,1.94,6.46,4.52,7.11,2.58.65,11.63,2.58,15.5,1.29,3.88-1.29,18.73-12.27,20.67-16.15,1.94-3.88,1.94,6.46,6.46,7.75,4.52,1.29,36.17-1.29,36.17-1.29l13.56-5.17s9.04,10.98,21.96,14.21c12.92,3.23,44.57,7.11,52.32,5.17s20.02-9.69,23.25-14.86c3.23-5.17,5.81-18.09-3.23-23.9,0,0-7.75-9.04-18.09-9.04s-23.9,5.17-27.13,5.81c-3.23.65-14.86-.65-14.86-.65,0,0,21.96-7.75,25.84-14.21,3.88-6.46,6.46-23.9,5.17-32.94-1.29-9.04-20.02-23.25-27.13-23.9s-34.23-3.88-42.63,1.94-12.27,14.21-19.38,14.21-32.3-4.52-32.3-4.52c0,0-32.94,0-36.17,1.29-3.23,1.29,1.94-9.69,5.81-14.21,3.88-4.52,14.86-31.65,14.21-38.76-.65-7.11,7.75-27.77-7.75-36.17s-41.99-8.4-45.21-6.46-27.77,20.67-30.36,31-10.98,39.4-10.98,51.67-5.17,37.46-7.75,41.34c-2.58,3.88-42.63,28.42-50.38,30.36-7.75,1.94-26.48,5.17-29.07.65-2.58-4.52-4.52-15.5-1.29-21.32,3.23-5.81,14.21-37.46,16.79-44.57,2.58-7.11,11.63-25.84,11.63-37.46s-5.17-24.55-11.63-27.77c-6.46-3.23-19.38-5.17-23.9-5.81s-18.09-1.29-18.09-1.29Z"/>
      <path class="cls-3" d="M220.37,262.96c3.68-1.45,16.26-6.8,20.02-8.07,25.15-8.5,36.55-11.6,59.21-25.98,16.87-10.7,36.87-26.62,36.28-48.12-.12-4.38-1.51-7.93-3.67-10.66-3.55-6.15-10.77-10.92-19.2-6.76-59.06,29.18-88.12,42.74-146.26,70.84-23.25,11.24-46.8,21.55-70.85,31.09-11.23,4.46-22.8,7.75-34.69,9.84-10.96,1.93-21.97,3.68-30.71,11.22-15.01,12.95-16.26,34.73-5.53,53.46,13.79,24.07,51.62-4.2,69.76-16.15,10.1-6.65,21.45-9.34,32.62-13.89,10.87-4.43,23.09-11.21,33.59-16.47,11.78-5.9,21.42-11.79,33.27-17.44l35.85,3.23-9.69-16.15Z"/>
      <g>
        <g>
          <path class="cls-2" d="M283.92,222.54c1.89.99,5.78-5.22,6.47-11.02.78-6.5,2.65-12.04,3.31-12.12.66-.09,5.44,6.94,6.33,8.53,2.61,2.89,4.83,6.74,7.75,6.08,1.94-1.89,4.48-9.75,6.55-17.62,2.13-8.6,6.43-16.81,5.86-18.08-.57-1.27-2.09-1-2.09-1,0,0-1.47-.6-2.23.11s-8.1,24.42-10.07,28.62c-1.04-.85-2.49-3.99-5.49-9.49-2.06-4.32-5.4-6.48-7.41-5.7-2.01.78-10.88,30.71-8.98,31.71Z"/>
          <path class="cls-2" d="M262.36,230.24c4.06,1.1,9.61-3.26,12.08-8.47,1.09-3.1,5.67-13.25,4.01-14.99-1.67-1.74-11.52-1.73-16.01,4.33-5,4.93-4.7,16.52-3.58,17.62,1.12,1.11-.56.42,3.51,1.52ZM263.88,217.56c.69-2.48,2.58-4.99,4.34-5.39,1.76-.39,3.23,3.72,2.06,7.26-1.19,3.91-2.86,5.52-5.41,5.22-1.4-.45-2.07-4.27-.99-7.09Z"/>
          <path class="cls-2" d="M250.12,231.08c.07-10.96,2.52-17.74,2.79-19.91-5.15-.27-7.88,4.18-8.98,13.29-.57,4.72-2.34,14.83-1.9,18.91,1.79.73,6.87-5.05,8.1-12.28Z"/>
          <path class="cls-2" d="M207.47,234.23c4.72-2.4,7.77-3.13,9.85-2.15,0,2.93-.06,6.61-.33,11.74-.12,4.05.42,10.44,2.05,10.58,1.63.15,6.06-4.02,6.23-5.87.16-1.86-.57-5.62-1.24-10.87.07-3.01-1.66-7.04-.31-9.61.48-.93,6.08-1.85,8.08-3.07,2-1.22,7.57-3.07,6.23-5.86-.51-1.05-5.46-.34-9.37,1.42-5.4,2.52-7.42,3.17-9.7,4.03-2.27.86-5.88,2.92-13.44,4.62-6.18,2.18-9.16,5.19-8.14,6.66,1.02,1.48,5.01,1.05,10.08-1.62Z"/>
          <path class="cls-2" d="M190.18,269.68c4.4-1.06,7.08-4,7.65-8.53-.45-.67-2.79.59-7.18,2.42-2.79.97-4.88-.54-5.85-3.33-1.39-3.17-.34-6.44,2.7-9.84,4.67-4.37,8.48-7.86,7.21-9.75-1.27-1.89-9.89-.34-13.41,7.21-3.73,6.28-4.54,17.45-2.61,20.02,1.93,2.57,7.5,3.26,11.49,1.81Z"/>
          <path class="cls-2" d="M157.3,284.63c8.37.65,13.73-10.14,15.31-32.41-4.4-.15-6.72,3.62-7.72,11.98-.78,9.47-4.41,16.05-6.64,15.39-2.23-.66-1.94-11.27-.72-21.44-5.49-.29-8.2,3.77-7.85,13.05.11,8.46,2.82,13.24,7.62,13.43Z"/>
          <path class="cls-2" d="M143.05,277.74c-.43-6.33-2.97-8.74-9.61-8.19-6.63.54-13.34,2.71-14.5,3.32-1.16.62.23,7.87-.29,15.27.36,6.69,1.25,12.56,2.78,12.88,1.52.32,7.3-5.4,13.75-10.12,5.61-4.39,8.12-8.82,7.87-13.16ZM136.36,283.12c-.81,2.16-2.98,4.36-8.41,9.27-1.42,1.68-2.37.53-2.94-1.74-.96-3.79-.88-10.68-.25-12.6,1-3.07,3.77-3.43,6.6-4.04,1.06-.42,1.93-.58,2.66-.56,4.01.11,3.43,6.13,2.36,9.67Z"/>
          <path class="cls-2" d="M110.24,280.74c-2.85-2.33-14.01.9-18.28,7.33-4.23,6.44-5.45,18.73-2.13,21.48,3.31,2.75,11.3-.41,14.81-7.77,1.75-3.71,8.44-18.71,5.59-21.04ZM94.82,304.05c-.49-.25-.73-1.12-.8-2.28-.14-2.49.65-6.37,2.12-8.84,1-1.73,2.46-4.37,3.97-4.77.99-.27,2.76-.23,3.69.19,2.35,1.05-5.09,16.93-8.99,15.7Z"/>
          <path class="cls-2" d="M77.31,304.96l-5.28-.62c.48-1.25,1.99-3.23,4.68-6.73,1.95-3.02,2.62-6.05,2.54-8.71,0-.13-.04-.25-.08-.38-.33-1.03-1.86-1.75-3.86-2.06-2.57-.41-5.9-.16-8.44.91-3.8,2.15-6.36,4.72-7.46,8.47l-.16,11.02c.05,2.26-.33,5.39-1.99,12.21-1.7,5.94-3.66,12.99-2.01,13.95,5.17.65,5.32-.56,7.21-18.77,1.28-12.34.75-18.54,4.02-22.71,1.47-1.45,2.43-2.27,4.33-2.07,1.91.22,3.01,1.66,3.43,3.63-.63,2.51-1.89,4.93-4.17,7.87-2.35,3.26-3.91,5.66-4.43,7.21.62.38,2.83.65,6.68.8,2.53.32,5.13,1.55,5.53,2.26.39.72.06,2.28.13,4.22.17,1.3-.97,3.02.93,3,1.9-.02,6.57-7.81,3.27-11.19-1.18-1.15-2.66-2.03-4.88-2.31Z"/>
          <path class="cls-2" d="M51.59,293.81c-7.72-5.66-12.74-4.35-15.65,2.36-.02.64-.45,1.88-1.12,3.26-.46,1.64-.85,3.46-1.15,5.51-1.93,13.03.56,35.77,3.79,35.81,2.53-2.65,3.09-7.34,1.68-13.8-1.36-7.15-1.49-11.98-1.28-13.78,8.02-5.31,16.94-17,13.74-19.35ZM37.65,302.45c.8-3.58,2.98-7.47,3.94-7.54,0,0,1.46.38,2.39.89.93.51,2.16,1.27,2.33,2.16s-1.25,4.25-3.01,6.65c-2.99,3.3-4.16,3.85-4.53,3.81-2.04-1.37-2.32-2.07-1.12-5.98Z"/>
        </g>
        <g>
          <path class="cls-2" d="M754.34,192.59c-6.47-.13-11.71,4.04-18.24,5.39-13.06,2.69-25.05.55-31.16-9.04,14.87-11.22,30.07-22.11,32.52-45.67-1.78-14.42-38.76-23.66-52.43-8.17-7.18,8.07-10.58,23.4-10.57,29.65,0,6.25,1.85,7.83,1.58,12.89-6.93,3.93-14.56,8.97-24.29,7.67-11.02-12.92,4.28-40.27-1.65-44.03-5.93-2.4-11.38-5.47-18.27-2.99-3.79,10.35-7.68,19.25-12.04,28.12-2.9,5.88-6.77,13.5-12.13,14.47-1.59-10.96,10.98-23.02,9.01-32.68-1.48-7.24-13.74-9.32-21.28-8.28-8.24,28.67-19.36,54.5-46.17,64.71-2.77-9.97-5.5-22.34-7.69-34.92,24.01-21.25,43.74-50.8,52.15-86.02,2.02-8.37,6.02-23.56,3.72-29.64-2.42-6.34-17.65-10.35-28.14-9.02-7.03.91-16.34,8.01-21.25,14.49-12.29,16.43-17.57,47.38-21.82,68.45-2.57,12.87-2.02,28.19-6.7,34.96-2,2.88-7.51,6.38-10.65,8.4-11.37,7.27-25.81,15.95-37.16,21.35-9.49,4.54-29.45,12.55-36.44,10.79-5.75-1.49-7.63-8.16-12.17-9.1-6.38-1.39-10.01,1.23-14.42,3.06-1.64,15.19-4.73,32.35-12.01,43.38-1.09,1.59-2.25,2.2-3.05,3.8-1.06,1.93-2.06,4.37-3.02,6.07-4.69,8.02-16.75,19.47-18.89,19.06-2.14-.41-7.19-29.06-2.45-42.56,1-2.87,4.84-5.34,6.81-9.12,1.3-2.48,1.9-5.59,3.04-7.61,4.99-8.76,15.45-16.98,21.95-20.59,21.4-20.53,28.81-51.98,37.75-85.19,2.06-7.67,7.16-17.66,5.97-25.86-2.12-14.59-33.62-22.08-48.66-12.77-7.24,4.5-6.45,14.96-9.8,24.35-7.17,20.16-13.43,29.81-18.04,64.65-1.41,5.42-5.49,17.27-7.52,25.1-6.38,16.2-5.31,38.6-18.85,47.92-8.28,4.74-11.78,10.4-18.95,16.74-27.56,24.42-119.59,59.64-157.27,74.13-10.66,4.08-22.87,14.53-15.17,18.28,7.7,3.75,17.85,6.26,29.63,1.41,38.29-15.78,53.34-25.79,74.21-36.16,20.87-10.38,50.41-23.25,54.3-25.67,13.65-8.42,25.56-17.72,38.63-24.42-2.76,22.65,9.82,40.64,32.03,36.34,21.46-8.2,31.56-44.35,43.08-70.79,41.26,11.75,71.01-19.85,101.69-32.95,6.22,12.43,2.33,29.37,13.02,36.43,21.37,14.09,38.4-9.06,50.86-19.17,4.6,3.17,5.25,8.18,9.91,9.88,16.76,6.07,24.19-14.37,32.61-21.38,3.72,3.64,4.82,6.13,9.91,12.11,5.09,5.99,33.2,2.87,44.05-3.18,5.74,6.48,11.17,10.05,21.34,14.36,3.42,1.76,8.14,3.46,12.71,4.35,14.12,1.33,42.07,4.62,49.54-6.81,7.35-11.17-3.12-18.67-13.7-18.95ZM546.74,130.17c3.61-24.42,8.47-57.84,30.93-66.21.91-.11,1.4.19,1.53.78-2.74,30.1-18.03,54.23-33.21,74.56-2.73-2.79.3-6.2.74-9.13ZM390.29,142.79c.77-4.87.19-10.3,1.46-15.17,2.2-8.5,6.86-16.85,9.79-25.11,1.19-3.33,2.22-6.68,3.29-9.97.45-1.39.9-2.76,1.35-4.08,1.76-5.15,3.54-9.46,5.15-10.3,3.08-1.59,8.28-2.02,12.17-.04,7.23,12.48-6.26,36.09-11.24,48.66-1.88,4.77-1.85,11.99-3.74,16.72-2.88,7.27-7.72,12.82-11.34,20.57-3.78,8.04-10.85,14.09-15.92,18.26,2.25-13.32,6.84-26,9.02-39.53ZM713.93,146.37c-.29,8.18-9.05,14.14-15.15,19.05-3.31-8.75,5.79-20.14,15.15-19.05Z"/>
          <path class="cls-1" d="M713.93,146.37c-.29,8.18-9.05,14.14-15.15,19.05-3.31-8.75,5.79-20.14,15.15-19.05Z"/>
          <path class="cls-1" d="M546.74,130.17c3.61-24.42,8.47-57.84,30.93-66.21.91-.11,1.4.19,1.53.78-2.74,30.1-18.03,54.23-33.21,74.56-2.73-2.79.3-6.2.74-9.13Z"/>
          <path class="cls-4" d="M397.18,164.14c3.62-7.75,8.45-13.3,11.34-20.57,1.88-4.73,1.85-11.95,3.74-16.72,4.99-12.57,18.47-36.18,11.24-48.66-3.88-1.98-9.09-1.55-12.17.04-1.61.83-3.39,5.15-5.15,10.3-.45,1.32-.91,2.7-1.35,4.08-1.07,3.29-2.1,6.64-3.29,9.97-2.93,8.26-7.58,16.62-9.79,25.11-1.27,4.87-.69,10.31-1.46,15.17-2.18,13.52-6.78,26.21-9.03,39.53,5.06-4.17,12.13-10.22,15.92-18.26Z"/>
        </g>
      </g>
    </g>
  </g>
</svg>